<svg width="200" height="200" viewBox="0 0 200 200" fill="none" xmlns="http://www.w3.org/2000/svg">
<path d="M160 64H26C21.5817 64 18 67.5817 18 72V168C18 172.418 21.5817 176 26 176H160C164.418 176 168 172.418 168 168V72C168 67.5817 164.418 64 160 64Z" fill="#FAFAFA" stroke="#D4D4D8" stroke-width="2"/>
<path d="M175 49H41C36.5817 49 33 52.5817 33 57V153C33 157.418 36.5817 161 41 161H175C179.418 161 183 157.418 183 153V57C183 52.5817 179.418 49 175 49Z" fill="#FAFAFA" stroke="#D4D4D8" stroke-width="2"/>
<path fill-rule="evenodd" clip-rule="evenodd" d="M130 110C132.761 110 135 112.239 135 115C135 117.761 132.761 120 130 120H90C87.2386 120 85 117.761 85 115C85 112.239 87.2386 110 90 110H130ZM155 90C157.761 90 160 92.2386 160 95C160 97.7614 157.761 100 155 100H65C62.2386 100 60 97.7614 60 95C60 92.2386 62.2386 90 65 90H155Z" fill="#D4D4D8"/>
<path d="M168 74C185.673 74 200 59.6731 200 42C200 24.3269 185.673 10 168 10C150.327 10 136 24.3269 136 42C136 59.6731 150.327 74 168 74Z" fill="#D4D4D8"/>
<path d="M153 51V42" stroke="#A1A1AA" stroke-width="4" stroke-linecap="round" stroke-linejoin="round"/>
<path d="M148 48L153 53L158 48" stroke="#A1A1AA" stroke-width="4" stroke-linecap="round" stroke-linejoin="round"/>
<path d="M168 57C176.284 57 183 50.2843 183 42C183 33.7157 176.284 27 168 27C159.716 27 153 33.7157 153 42" stroke="#A1A1AA" stroke-width="4" stroke-linecap="round" stroke-linejoin="round"/>
<path fill-rule="evenodd" clip-rule="evenodd" d="M183.092 25.4939L184.506 26.9081C185.678 28.0797 185.678 29.9792 184.506 31.1507L169.612 46.0448C169.451 46.2054 169.241 46.3065 169.015 46.3316L164.242 46.8619C163.693 46.9229 163.199 46.5274 163.138 45.9785C163.13 45.9051 163.13 45.831 163.138 45.7576L163.668 40.9846C163.693 40.759 163.795 40.5485 163.955 40.388L178.849 25.4939C180.021 24.3223 181.92 24.3223 183.092 25.4939Z" fill="#71717A"/>
</svg>
